<?xml version="1.0" encoding="utf-8"?>
<!-- Generator: Adobe Illustrator 24.0.1, SVG Export Plug-In . SVG Version: 6.00 Build 0)  -->
<svg version="1.1" id="Layer_1" xmlns="http://www.w3.org/2000/svg" xmlns:xlink="http://www.w3.org/1999/xlink" x="0px" y="0px"
	 viewBox="0 0 512 512" style="enable-background:new 0 0 512 512;" xml:space="preserve">
<style type="text/css">
	.st0{fill:#FFFFFF;}
</style>
<path class="st0" d="M188.1,210.7L142.9,256l45.2,45.2l45.3-45.2L188.1,210.7z M301.2,188.1L256,142.9l-45.2,45.2l45.2,45.3
	L301.2,188.1L301.2,188.1z M210.8,323.9l45.2,45.3l45.3-45.3L256,278.6L210.8,323.9z M256,0C114.6,0,0,114.6,0,256
	s114.6,256,256,256s256-114.6,256-256S397.4,0,256,0z M442.7,295.6l-11.3,11.3c-3.1,3.1-8.2,3.1-11.3,0l-28.3-28.3l-45.2,45.2
	l33.9,33.9l17-17c3.1-3.1,8.2-3.1,11.3,0l11.3,11.3c3.1,3.1,3.1,8.2,0,11.3l-17,17l17,17c3.1,3.1,3.1,8.2,0,11.3L408.7,420
	c-3.1,3.1-8.2,3.1-11.3,0l-17-17l-17,17c-3.1,3.1-8.2,3.1-11.3,0l-11.3-11.3c-3.1-3.1-3.1-8.2,0-11.3l17-17l-33.9-33.9l-45.3,45.3
	l28.3,28.3c3.1,3.1,3.1,8.2,0,11.3l-11.3,11.3c-3.1,3.1-8.2,3.1-11.3,0L256,414.4l-28.3,28.3c-3.1,3.1-8.2,3.1-11.3,0l-11.3-11.3
	c-3.1-3.1-3.1-8.2,0-11.3l28.3-28.3l-45.2-45.3l-33.9,33.9l17,17c3.1,3.1,3.1,8.2,0,11.3L159.9,420c-3.1,3.1-8.2,3.1-11.3,0l-17-17
	l-17,17c-3.1,3.1-8.2,3.1-11.3,0L92,408.7c-3.1-3.1-3.1-8.2,0-11.3l17-17l-17-17c-3.1-3.1-3.1-8.2,0-11.3l11.3-11.3
	c3.1-3.1,8.2-3.1,11.3,0l17,17l33.9-33.9l-45.2-45.2L92,306.9c-3.1,3.1-8.2,3.1-11.3,0l-11.3-11.3c-3.1-3.1-3.1-8.2,0-11.3L97.6,256
	l-28.3-28.3c-3.1-3.1-3.1-8.2,0-11.3l11.3-11.3c3.1-3.1,8.2-3.1,11.3,0l28.3,28.3l45.2-45.3l-33.9-33.9l-17,17
	c-3.1,3.1-8.2,3.1-11.3,0l-11.3-11.3c-3.1-3.1-3.1-8.2,0-11.3l17-17l-17-17c-3.1-3.1-3.1-8.2,0-11.3L103.3,92
	c3.1-3.1,8.2-3.1,11.3,0l17,17l17-17c3.1-3.1,8.2-3.1,11.3,0l11.3,11.3c3.1,3.1,3.1,8.2,0,11.3l-17,17l33.9,33.9l45.3-45.2L205.1,92
	c-3.1-3.1-3.1-8.2,0-11.3l11.3-11.3c3.1-3.1,8.2-3.1,11.3,0L256,97.6l28.3-28.3c3.1-3.1,8.2-3.1,11.3,0l11.3,11.3
	c3.1,3.1,3.1,8.2,0,11.3l-28.3,28.3l45.3,45.2l33.9-33.9l-17-17c-3.1-3.1-3.1-8.2,0-11.3l11.3-11.3c3.1-3.1,8.2-3.1,11.3,0l17,17
	l17-17c3.1-3.1,8.2-3.1,11.3,0l11.3,11.3c3.1,3.1,3.1,8.2,0,11.3l-17,17l17,17c3.1,3.1,3.1,8.2,0,11.3l-11.3,11.3
	c-3.1,3.1-8.2,3.1-11.3,0l-17-17l-33.9,33.9l45.2,45.3l28.3-28.3c3.1-3.1,8.2-3.1,11.3,0l11.3,11.3c3.1,3.1,3.1,8.2,0,11.3
	L414.4,256l28.3,28.3C445.8,287.4,445.8,292.5,442.7,295.6L442.7,295.6z M278.6,256l45.3,45.2l45.2-45.2l-45.2-45.3L278.6,256z"/>
</svg>
